<svg width="29" height="16" viewBox="0 0 29 16" fill="none" xmlns="http://www.w3.org/2000/svg">
<path d="M28.6737 14.797C28.4211 13.8346 27.1579 12.2707 24.2526 9.50376C24 9.26316 23.8737 9.14286 23.7474 9.02256C23.2421 8.54135 23.3684 8.18045 23.7474 7.69925C24 7.57895 27.6632 2.64662 28.0421 1.20301C28.1684 0.962406 28.1684 0.601504 27.9158 0.481203C27.7895 0.120301 27.5368 0 27.2842 0H24C23.3684 0 22.9895 0.240601 22.6105 0.842105C22.6105 0.842105 22.6105 0.842105 22.6105 0.962406C22.4842 1.08271 20.9684 4.57143 18.8211 6.85714C17.9368 7.69925 17.3053 7.81955 17.0526 7.81955C16.9263 7.69925 16.6737 7.45865 16.6737 6.97744C16.6737 6.25564 16.6737 4.45113 16.6737 3.00752V1.44361V0.601504C16.6737 0.360902 16.4211 0.240601 16.1684 0.240601H10.9895C10.7368 0 10.4842 0.240601 10.3579 0.481203C10.2316 0.601504 10.2316 0.962406 10.4842 1.08271L10.7368 1.32331C10.9895 1.68421 11.4947 2.16541 11.6211 3.36842V7.69925C11.6211 8.90226 11.2421 8.90226 10.9895 8.90226C9.85263 8.90226 7.32632 5.41353 5.68421 1.08271C5.30526 0.481203 5.17895 0 4.16842 0H2.14737C1.26316 0 1.01053 0 0.757895 0H0.505263C0.252632 0 0.252632 0.120301 0.126316 0.240601C0 0.360902 0 0.481203 0 0.601504V0.962406C0.252632 3.48872 5.68421 15.8797 14.5263 15.8797C15.1579 15.8797 15.6632 15.8797 16.0421 15.7594L16.4211 15.6391C16.5474 15.5188 16.6737 15.3985 16.6737 15.2782V13.2331C16.6737 12.6316 16.6737 11.5489 16.9263 11.3083C16.9263 11.3083 17.1789 11.188 17.5579 11.188C18.3158 11.188 19.3263 11.7895 20.7158 13.1128C21.3474 13.7143 21.8526 14.1955 22.2316 14.6767C22.9895 15.5188 23.4947 16 24.3789 16H27.2842C27.6632 16 27.7895 16 27.9158 16L28.4211 15.8797C28.5474 15.8797 28.6737 15.7594 28.6737 15.6391C28.8 15.5188 28.8 15.3985 28.8 15.2782L28.6737 14.797Z" fill="#0265AB"/>
</svg>
