<svg width="25" height="16" viewBox="0 0 25 16" fill="none" xmlns="http://www.w3.org/2000/svg">
<g clip-path="url(#clip0_294_1224)">
<path d="M20.1598 0H4.90647C2.67714 0 0.799805 1.72973 0.799805 3.89189V12.2162C0.799805 14.3784 2.67714 16.1081 4.90647 16.1081H20.0425C22.3891 16.1081 24.1491 14.3784 24.1491 12.2162V3.89189C24.2665 1.72973 22.3891 0 20.1598 0ZM15.5838 7.78378L10.7731 10.4865C10.5385 10.5946 10.1865 10.4865 10.1865 10.1622V5.18919C10.1865 4.86486 10.5385 4.75676 10.7731 4.86486L15.7011 7.13513C15.8185 7.24324 15.8185 7.67567 15.5838 7.78378Z" fill="#0265AB"/>
</g>
<defs>
<clipPath id="clip0_294_1224">
<rect width="23.4667" height="16" fill="white" transform="translate(0.799805)"/>
</clipPath>
</defs>
</svg>
